# 3ds Max Wavefront OBJ Exporter v0.97b - (c)2007 guruware
# File Created: 31.01.2016 15:47:50

mtllib Lamp 10.mtl

#
# object Lamp_10
#

v  -0.2218 -0.0079 0.0566
v  -0.2218 0.0703 0.0566
v  -0.2462 0.0703 -0.0104
v  -0.2462 -0.0079 -0.0104
v  -0.1535 -0.0079 0.1019
v  -0.1535 0.0703 0.1019
v  -0.0548 -0.0079 0.1271
v  -0.0548 0.0703 0.1271
v  0.0548 -0.0079 0.1271
v  0.0548 0.0703 0.1271
v  0.1535 -0.0079 0.1019
v  0.1535 0.0703 0.1019
v  0.2218 -0.0079 0.0566
v  0.2218 0.0703 0.0566
v  0.2462 -0.0079 -0.0104
v  0.2462 0.0703 -0.0104
v  -0.1779 -0.0620 0.0454
v  -0.1974 -0.0620 -0.0104
v  -0.1231 -0.0620 0.0818
v  -0.0439 -0.0620 0.1019
v  0.0439 -0.0620 0.1019
v  0.1231 -0.0620 0.0818
v  0.1779 -0.0620 0.0454
v  0.1974 -0.0620 -0.0104
v  -0.0987 -0.0904 0.0252
v  -0.1096 -0.0904 -0.0104
v  -0.0683 -0.0904 0.0454
v  -0.0244 -0.0904 0.0566
v  0.0244 -0.0904 0.0566
v  0.0683 -0.0904 0.0454
v  0.0987 -0.0904 0.0252
v  0.1096 -0.0904 -0.0104
v  0.0000 -0.0987 -0.0104
v  -0.2218 0.0703 0.0349
v  -0.2462 0.0703 -0.0106
v  -0.1535 0.0703 0.0803
v  -0.0548 0.0703 0.1054
v  0.0548 0.0703 0.1054
v  0.1535 0.0703 0.0803
v  0.2218 0.0703 0.0349
v  0.2462 0.0703 -0.0106
v  -0.0033 -0.0774 -0.0106
v  -0.0037 -0.0774 -0.0106
v  -0.0023 -0.0774 -0.0106
v  -0.0008 -0.0774 -0.0106
v  0.0008 -0.0774 -0.0106
v  0.0023 -0.0774 -0.0106
v  0.0033 -0.0774 -0.0106
v  0.0037 -0.0774 -0.0106
v  0.0000 0.1011 0.0308
v  -0.0486 0.0730 0.0308
v  -0.0243 0.0730 0.0729
v  0.0243 0.0730 0.0729
v  0.0486 0.0730 0.0308
v  0.0243 0.0730 -0.0113
v  -0.0243 0.0730 -0.0113
v  -0.0243 0.0168 0.0729
v  -0.0486 0.0168 0.0308
v  0.0243 0.0168 0.0729
v  0.0486 0.0168 0.0308
v  0.0243 0.0168 -0.0113
v  -0.0243 0.0168 -0.0113
v  0.0000 -0.0113 0.0308
# 63 vertices

vn -0.8534 -0.3414 0.3939
vn -0.9082 0.0000 0.4186
vn -0.9819 -0.0000 0.1894
vn -0.9244 -0.3381 0.1766
vn -0.5858 -0.3425 0.7345
vn -0.6235 0.0000 0.7818
vn -0.2091 -0.3425 0.9159
vn -0.2225 0.0000 0.9749
vn 0.2091 -0.3425 0.9159
vn 0.2225 0.0000 0.9749
vn 0.5858 -0.3425 0.7345
vn 0.6235 -0.0000 0.7818
vn 0.8535 -0.3420 0.3932
vn 0.9082 -0.0000 0.4186
vn 0.9237 -0.3393 0.1782
vn 0.9819 0.0000 0.1894
vn -0.5187 -0.8213 0.2374
vn -0.5627 -0.8202 0.1031
vn -0.3547 -0.8224 0.4448
vn -0.1266 -0.8224 0.5547
vn 0.1266 -0.8224 0.5547
vn 0.3547 -0.8224 0.4448
vn 0.5196 -0.8212 0.2359
vn 0.5626 -0.8198 0.1065
vn -0.1901 -0.9781 0.0853
vn -0.2046 -0.9783 0.0331
vn -0.1278 -0.9787 0.1608
vn -0.0454 -0.9789 0.1995
vn 0.0454 -0.9789 0.1995
vn 0.1278 -0.9787 0.1608
vn 0.1917 -0.9778 0.0844
vn 0.2066 -0.9778 0.0357
vn -0.0000 -0.9993 0.0386
vn 0.0000 1.0000 -0.0000
vn -0.0000 1.0000 0.0000
vn 0.2187 0.9696 -0.1101
vn 0.4356 0.8915 -0.1241
vn 0.1535 0.9695 -0.1908
vn 0.0555 0.9689 -0.2413
vn -0.0554 0.9688 -0.2416
vn -0.1539 0.9694 -0.1913
vn -0.2191 0.9695 -0.1102
vn -0.4362 0.8913 -0.1238
vn 0.0679 0.5017 -0.8624
vn 0.0431 0.0706 -0.9966
vn 0.0591 0.7371 -0.6732
vn 0.0322 0.8117 -0.5833
vn -0.0012 0.8291 -0.5590
vn -0.0353 0.8121 -0.5825
vn -0.0680 0.7416 -0.6674
vn -0.0953 0.6015 -0.7931
vn -0.0000 1.0000 -0.0000
vn -0.8861 0.4635 -0.0000
vn -0.5060 0.4938 0.7072
vn 0.5060 0.4938 0.7072
vn 0.8861 0.4635 0.0000
vn 0.5060 0.4938 -0.7072
vn -0.5060 0.4938 -0.7072
vn -0.5060 -0.4938 0.7072
vn -0.8861 -0.4635 0.0000
vn 0.5060 -0.4938 0.7072
vn 0.8861 -0.4635 0.0000
vn 0.5060 -0.4938 -0.7072
vn -0.5060 -0.4938 -0.7072
vn 0.0000 -1.0000 -0.0000
# 65 vertex normals

vt 0.0675 0.1972 0.0000
vt 0.0675 0.3496 0.0000
vt 0.0200 0.3496 0.0000
vt 0.0200 0.1972 0.0000
vt 0.2007 0.1972 0.0000
vt 0.2007 0.3496 0.0000
vt 0.3932 0.1972 0.0000
vt 0.3932 0.3496 0.0000
vt 0.6068 0.1972 0.0000
vt 0.6068 0.3496 0.0000
vt 0.7993 0.1972 0.0000
vt 0.7993 0.3496 0.0000
vt 0.9325 0.1972 0.0000
vt 0.9325 0.3496 0.0000
vt 0.9800 0.1972 0.0000
vt 0.9800 0.3496 0.0000
vt 0.1532 0.0917 0.0000
vt 0.1151 0.0917 0.0000
vt 0.2600 0.0917 0.0000
vt 0.4143 0.0917 0.0000
vt 0.5857 0.0917 0.0000
vt 0.7400 0.0917 0.0000
vt 0.8468 0.0917 0.0000
vt 0.8849 0.0917 0.0000
vt 0.3075 0.0363 0.0000
vt 0.2864 0.0363 0.0000
vt 0.3668 0.0363 0.0000
vt 0.4525 0.0363 0.0000
vt 0.5475 0.0363 0.0000
vt 0.6332 0.0363 0.0000
vt 0.6925 0.0363 0.0000
vt 0.7136 0.0363 0.0000
vt 0.5000 0.0200 0.0000
vt 0.9830 0.4692 0.0000
vt 0.9355 0.7157 0.0000
vt 0.9355 0.6359 0.0000
vt 0.9830 0.4684 0.0000
vt 0.8023 0.8827 0.0000
vt 0.8023 0.8029 0.0000
vt 0.6098 0.9754 0.0000
vt 0.6098 0.8956 0.0000
vt 0.3962 0.9754 0.0000
vt 0.3962 0.8956 0.0000
vt 0.2037 0.8827 0.0000
vt 0.2037 0.8029 0.0000
vt 0.0705 0.7157 0.0000
vt 0.0705 0.6359 0.0000
vt 0.0230 0.4692 0.0000
vt 0.0230 0.4684 0.0000
vt 0.5095 0.4685 0.0000
vt 0.5102 0.4685 0.0000
vt 0.5075 0.4685 0.0000
vt 0.5046 0.4685 0.0000
vt 0.5014 0.4685 0.0000
vt 0.4985 0.4685 0.0000
vt 0.4965 0.4685 0.0000
vt 0.4958 0.4685 0.0000
vt 0.0918 0.9311 0.0000
vt 0.0918 0.7942 0.0000
vt 0.2228 0.7942 0.0000
vt 0.2228 0.9311 0.0000
vt 0.3537 0.7942 0.0000
vt 0.3537 0.9311 0.0000
vt 0.4847 0.7942 0.0000
vt 0.4847 0.9311 0.0000
vt 0.6157 0.7942 0.0000
vt 0.6157 0.9311 0.0000
vt 0.7466 0.7942 0.0000
vt 0.7466 0.9311 0.0000
vt 0.8776 0.7942 0.0000
vt 0.2228 0.6573 0.0000
vt 0.0918 0.6573 0.0000
vt 0.3537 0.6573 0.0000
vt 0.4847 0.6573 0.0000
vt 0.6157 0.6573 0.0000
vt 0.7466 0.6573 0.0000
vt 0.8776 0.6573 0.0000
vt 0.0918 0.5203 0.0000
vt 0.2228 0.5203 0.0000
vt 0.3537 0.5203 0.0000
vt 0.4847 0.5203 0.0000
vt 0.6157 0.5203 0.0000
vt 0.7466 0.5203 0.0000
# 83 texture coords

g Lamp_10
usemtl wire_229154215
s 1
f 1/1/1 2/2/2 3/3/3 4/4/4 
f 5/5/5 6/6/6 2/2/2 1/1/1 
f 7/7/7 8/8/8 6/6/6 5/5/5 
f 9/9/9 10/10/10 8/8/8 7/7/7 
f 11/11/11 12/12/12 10/10/10 9/9/9 
f 13/13/13 14/14/14 12/12/12 11/11/11 
f 15/15/15 16/16/16 14/14/14 13/13/13 
f 17/17/17 1/1/1 4/4/4 18/18/18 
f 19/19/19 5/5/5 1/1/1 17/17/17 
f 20/20/20 7/7/7 5/5/5 19/19/19 
f 21/21/21 9/9/9 7/7/7 20/20/20 
f 22/22/22 11/11/11 9/9/9 21/21/21 
f 23/23/23 13/13/13 11/11/11 22/22/22 
f 24/24/24 15/15/15 13/13/13 23/23/23 
f 25/25/25 17/17/17 18/18/18 26/26/26 
f 27/27/27 19/19/19 17/17/17 25/25/25 
f 28/28/28 20/20/20 19/19/19 27/27/27 
f 29/29/29 21/21/21 20/20/20 28/28/28 
f 30/30/30 22/22/22 21/21/21 29/29/29 
f 31/31/31 23/23/23 22/22/22 30/30/30 
f 32/32/32 24/24/24 23/23/23 31/31/31 
f 33/33/33 25/25/25 26/26/26 
f 33/33/33 27/27/27 25/25/25 
f 33/33/33 28/28/28 27/27/27 
f 33/33/33 29/29/29 28/28/28 
f 33/33/33 30/30/30 29/29/29 
f 33/33/33 31/31/31 30/30/30 
f 33/33/33 32/32/32 31/31/31 
s 2
f 3/34/34 2/35/35 34/36/36 35/37/37 
f 2/35/35 6/38/35 36/39/38 34/36/36 
f 6/38/35 8/40/35 37/41/39 36/39/38 
f 8/40/35 10/42/34 38/43/40 37/41/39 
f 10/42/34 12/44/34 39/45/41 38/43/40 
f 12/44/34 14/46/34 40/47/42 39/45/41 
f 14/46/34 16/48/34 41/49/43 40/47/42 
f 35/37/37 34/36/36 42/50/44 43/51/45 
f 34/36/36 36/39/38 44/52/46 42/50/44 
f 36/39/38 37/41/39 45/53/47 44/52/46 
f 37/41/39 38/43/40 46/54/48 45/53/47 
f 38/43/40 39/45/41 47/55/49 46/54/48 
f 39/45/41 40/47/42 48/56/50 47/55/49 
f 40/47/42 41/49/43 49/57/51 48/56/50 
s 1
f 50/58/52 51/59/53 52/60/54 
f 50/61/52 52/60/54 53/62/55 
f 50/63/52 53/62/55 54/64/56 
f 50/65/52 54/64/56 55/66/57 
f 50/67/52 55/66/57 56/68/58 
f 50/69/52 56/68/58 51/70/53 
f 57/71/59 52/60/54 51/59/53 58/72/60 
f 59/73/61 53/62/55 52/60/54 57/71/59 
f 60/74/62 54/64/56 53/62/55 59/73/61 
f 61/75/63 55/66/57 54/64/56 60/74/62 
f 62/76/64 56/68/58 55/66/57 61/75/63 
f 58/77/60 51/70/53 56/68/58 62/76/64 
f 63/78/65 57/71/59 58/72/60 
f 63/79/65 59/73/61 57/71/59 
f 63/80/65 60/74/62 59/73/61 
f 63/81/65 61/75/63 60/74/62 
f 63/82/65 62/76/64 61/75/63 
f 63/83/65 58/77/60 62/76/64 
# 41 polygons - 19 triangles

